<svg width="677" height="189" viewBox="0 0 677 189" fill="none" xmlns="http://www.w3.org/2000/svg">
<path d="M17.23 188.442C12.0645 187.198 6.04608 182.677 2.66992 177.506C1.26019 175.346 1.10788 174.589 0.734494 167.875C0.511589 163.867 0.255153 131.689 0.164656 96.3678L0 32.1481L1.79261 28.6142C4.11828 24.0295 8.28592 19.8501 12.7564 17.6196C16.5255 15.7389 22.0771 14.8142 29.7208 14.7938L33.3916 14.784V19.7452V24.7063H26.7929C23.1636 24.7063 19.2195 25.0023 18.0282 25.3641C14.9568 26.2969 11.1613 29.9705 10.4495 32.6994C9.79656 35.2031 9.10849 165.363 9.72625 169.538C10.0113 171.465 10.6672 172.65 12.6171 174.763C17.2651 179.8 8.81073 179.31 94.028 179.486L169.62 179.641L172.744 177.653C175.12 176.141 176.334 174.86 177.811 172.306L179.753 168.947L179.263 101.099C178.934 55.6956 178.582 32.7947 178.196 31.8725C177.45 30.0845 173.808 26.4024 172.067 25.674C171.319 25.3613 167.22 24.9844 162.958 24.8364L155.208 24.5675V19.6757V14.784L158.879 14.7935C164.584 14.8081 172.186 15.7633 174.548 16.7615C180.411 19.2406 186.134 25.1908 187.928 30.6731C188.431 32.2111 188.638 49.5037 188.784 102.431L188.976 172.163L187.007 175.471C183.102 182.028 181.048 183.943 174.264 187.355L171.04 188.976L95.0102 188.92C53.1937 188.889 18.1927 188.674 17.23 188.442ZM43.7243 160.347C37.3958 159.734 31.6931 155.452 28.4318 148.865C26.69 145.347 26.5944 144.85 26.6037 139.365C26.6119 134.046 26.7498 133.286 28.2952 129.994C31.7579 122.616 36.7478 118.981 45.241 117.65L49.3358 117.008L50.6128 112.132C51.3151 109.45 52.6496 105.811 53.5783 104.045C55.7433 99.9273 61.0102 94.8065 65.4968 92.4567C68.8603 90.6951 69.3175 90.6068 76.0819 90.4119C83.9743 90.1845 85.7203 90.5724 90.836 93.6886C96.8728 97.3659 100.934 102.628 103.198 109.707L104.486 113.732L110.03 114.109C114.573 114.418 116.21 114.787 119.09 116.153C123.286 118.144 127.858 122.561 129.853 126.552C135.542 137.932 130.529 152.633 118.836 158.862L115.078 160.863L81.1687 160.777C62.5185 160.729 45.6685 160.535 43.7243 160.347ZM147.183 144.33C144.698 142.794 140.551 138.284 140.156 136.688C139.583 134.375 140.596 132.496 142.517 132.306C143.985 132.16 144.737 132.657 148.011 135.93C153.246 141.163 153.498 141.735 151.47 143.79C149.557 145.729 149.466 145.741 147.183 144.33ZM135.299 119.417C132.881 116.15 126.867 111.295 122.814 109.338C121.298 108.606 118.419 107.589 116.415 107.079C112.348 106.044 111.596 105.341 108.439 99.6259C106.445 96.0145 100.959 89.9379 98.1058 88.1792L96.4333 87.1482L98.3236 85.4659C99.3632 84.5407 102.08 82.8489 104.36 81.7065C107.888 79.9393 109.171 79.5946 112.959 79.3966C118.563 79.1037 123.014 79.9229 127.251 82.0273C140.804 88.7576 146.11 105.616 139.096 119.658C138.376 121.098 137.704 122.276 137.601 122.276C137.499 122.276 136.463 120.99 135.299 119.417ZM151.029 110.696C148.171 109.529 148.252 105.746 151.158 104.625C151.929 104.328 155.081 104.085 158.161 104.085C163.005 104.085 163.957 104.24 165.196 105.228C166.019 105.884 166.629 106.922 166.629 107.668C166.629 108.414 166.019 109.452 165.196 110.109C163.943 111.108 163.038 111.247 157.99 111.216C154.815 111.198 151.683 110.963 151.029 110.696ZM85.4711 81.3369C82.3987 79.0938 76.8976 73.296 76.8976 72.3009C76.8976 71.0207 79.4554 68.8057 80.9338 68.8057C81.9026 68.8057 83.4848 69.991 86.3713 72.879C90.5932 77.1034 91.5743 79.0238 90.6083 81.1728C89.7033 83.1861 88.0752 83.238 85.4711 81.3369ZM139.196 81.3619C138.731 80.688 138.35 79.6639 138.35 79.086C138.35 78.5037 140.379 75.978 142.902 73.4206C147.817 68.4388 149.333 67.8122 151.402 69.9084C153.127 71.6577 152.745 73.3599 149.906 76.5599C144.829 82.2842 141.015 83.9942 139.196 81.3619ZM114.421 72.8057C111.957 71.9444 111.702 71.1217 111.702 64.0348C111.702 57.9647 111.82 57.1106 112.79 56.1272C114.197 54.7013 116.158 54.7223 117.457 56.1772C118.304 57.126 118.516 58.3688 118.652 63.2055C118.827 69.4051 118.399 71.0961 116.325 72.4046C115.727 72.782 114.87 72.9625 114.421 72.8057ZM137.571 37.9657C134.658 36.0196 134.583 35.5621 134.562 19.5801C134.541 3.33637 134.71 2.35032 137.788 0.736777C141.374 -1.14286 145.378 0.708669 146.488 4.75938C146.796 5.88153 147.046 12.6601 147.048 19.9008C147.052 34.5427 146.777 36.011 143.685 37.9221C141.427 39.3175 139.613 39.3303 137.571 37.9657ZM44.6251 37.8626C42.3853 36.5431 42.0929 34.3338 42.0929 18.7344C42.0929 4.82741 42.1596 3.82205 43.1621 2.52969C45.7374 -0.788995 50.1295 -0.813588 52.9778 2.47451L54.7008 4.46368L54.4803 19.6837C54.3591 28.0548 54.0841 35.289 53.8694 35.7598C52.8271 38.0457 47.1338 39.3408 44.6251 37.8626ZM62.2144 19.7449V14.7837H94.5719H126.929V19.7449V24.706H94.5719H62.2144V19.7449Z" fill="url(#paint0_linear_98_25)"/>
<path d="M637.759 185.809C637.054 185.641 636.596 184.67 636.358 182.838C636.101 180.852 636.656 138.1 637.156 121.22C637.182 120.355 637.846 120.207 641.727 120.207H646.268V122.812C646.268 124.245 646.442 125.417 646.655 125.417C646.869 125.417 648.368 124.375 649.989 123.102C653.481 120.359 656.947 119.394 661.883 119.789C672.505 120.64 677.045 127.204 676.986 141.624C676.911 159.936 670.032 168.446 656.637 166.802C654.067 166.486 652.761 165.885 650.229 163.855C648.481 162.452 646.874 161.304 646.659 161.304C646.444 161.304 646.268 166.904 646.268 173.749V186.194L642.538 186.126C640.486 186.089 638.336 185.946 637.759 185.809ZM660.899 157.488C664.512 155.958 665.941 152.49 666.261 144.474C666.591 136.196 665.509 132.117 662.352 129.747C660.506 128.361 659.862 128.215 656.524 128.431C650.246 128.836 647.829 131.712 646.996 139.768C646.395 145.583 646.948 151.031 648.385 153.515C650.911 157.873 656.099 159.52 660.899 157.488ZM302.94 166.479C296.813 165.149 291.086 160.873 288.254 155.516C286.658 152.497 286.572 151.853 286.589 143.071C286.608 134.72 286.758 133.473 288.136 130.384C289.899 126.433 293.79 122.397 297.569 120.597C299.696 119.584 301.299 119.347 306.031 119.343C311.309 119.34 312.207 119.506 315.386 121.076C322.025 124.354 325.094 129.936 325.65 139.743L325.987 145.676H311.306H296.626V147.018C296.626 150.06 298.604 154.263 300.872 156.04C302.811 157.56 303.678 157.831 306.592 157.831C309.369 157.831 310.625 157.477 313.157 155.98C315.553 154.564 317.191 154.071 320.128 153.882C322.239 153.745 324.223 153.863 324.536 154.141C325.37 154.886 323.076 159.068 320.362 161.748C316.469 165.593 308.644 167.718 302.94 166.479ZM314.748 137.905C315.718 136.863 315.093 133.694 313.439 131.268C311.08 127.805 306.09 126.23 302.332 127.76C299.148 129.057 295.323 137.06 297.343 138.201C297.84 138.482 301.787 138.716 306.114 138.721C312.139 138.728 314.161 138.537 314.748 137.905ZM341.818 166.275C336.288 164.926 333.055 161.881 331.665 156.711C329.97 150.408 333.442 143.916 340.115 140.909C343.104 139.563 344.792 139.255 350.953 138.935L358.251 138.556V135.441C358.251 129.758 355.668 126.574 351.058 126.574C348.264 126.574 345.857 128.093 343.604 131.277L342.017 133.52H337.568H333.119L333.663 130.923C335.289 123.157 341.543 119.045 351.719 119.053C357.684 119.057 360.152 119.822 363.372 122.661C368.256 126.969 368.68 128.234 369.315 140.406C369.624 146.329 369.888 154.496 369.902 158.555L369.928 165.935H364.739H359.549V163.619C359.549 160.875 358.739 160.699 356.591 162.977C353.674 166.07 347.044 167.55 341.818 166.275ZM353.402 157.243C356 155.81 357.743 152.699 358.111 148.836C358.508 144.666 357.686 144.193 351.705 145.146C346.285 146.011 343.317 147.588 342.541 150.017C341.751 152.49 342.395 155.458 344.067 157.046C345.936 158.821 350.371 158.914 353.402 157.243ZM599.975 166.38C598.553 166.045 596.267 164.755 594.694 163.401C592.436 161.459 591.778 160.398 591.158 157.702C589.816 151.868 591.45 146.657 595.776 142.956C598.98 140.215 601.76 139.43 609.886 138.971L617.212 138.557L616.961 134.586C616.749 131.249 616.44 130.373 615.024 129.11C611.607 126.061 604.135 127.139 603.096 130.831C602.788 131.927 602.139 132.31 600.097 132.601C596.926 133.054 593.086 132.479 592.66 131.489C592.236 130.505 594.034 126.792 596.108 124.365C601.097 118.528 614.556 117.746 622.066 122.857C626.114 125.612 626.949 128.041 627.522 138.73C627.804 143.983 628.049 152.253 628.069 157.107L628.107 165.935H623.97C619.304 165.935 618.071 165.197 618.743 162.806C619.353 160.641 618.055 160.888 614.814 163.553C610.979 166.708 605.654 167.722 599.975 166.38ZM612.412 157.238C615.153 155.747 617.044 152.068 617.063 148.19L617.078 145.206L611.726 145.523C608.783 145.697 605.733 146.051 604.949 146.31C602.76 147.034 601.293 149.504 601.293 152.468C601.293 154.715 601.606 155.368 603.358 156.764C605.876 158.772 609.266 158.949 612.412 157.238ZM464.96 165.132C458.752 162.508 455.05 157.802 453.276 150.274C452.064 145.135 452.069 141.289 453.295 136.135C454.607 130.606 456.929 126.632 460.674 123.507C467.648 117.686 477.457 117.652 484.651 123.424C489.813 127.565 492.531 133.953 492.531 141.942V145.675H477.936H463.341V147.72C463.341 148.844 463.794 150.733 464.348 151.916C467.343 158.314 474.54 160.202 479.905 155.999C481.791 154.521 482.875 154.173 486.365 153.923C491.592 153.549 492.088 154.248 489.548 158.413C487.297 162.102 483.647 165.092 480.414 165.893C475.867 167.019 468.579 166.661 464.96 165.132ZM481.79 136.559C480.666 130.733 477.014 127.16 472.181 127.155C467.843 127.152 463.356 132.366 463.342 137.427C463.338 138.718 463.419 138.73 472.773 138.73H482.209L481.79 136.559ZM226.33 165.482C225.952 164.935 223.752 155.576 216.477 123.549C213.821 111.857 211.647 101.856 211.647 101.326C211.647 100.479 212.288 100.401 216.91 100.684C219.805 100.861 222.395 101.223 222.666 101.49C222.937 101.756 225.097 111.203 227.466 122.482C229.835 133.761 231.921 143.121 232.1 143.281C232.28 143.441 232.696 143.329 233.025 143.032C233.551 142.557 237.737 127.86 243.134 107.545L244.883 100.96L249.164 101.351C251.518 101.566 253.49 101.795 253.546 101.858C253.602 101.922 256.156 111.581 259.222 123.322C262.287 135.064 264.951 144.81 265.142 144.98C265.875 145.635 266.244 144.31 268.673 132.3C270.051 125.49 272.149 115.555 273.336 110.222L275.494 100.527H280.832C283.768 100.527 286.354 100.792 286.578 101.116C286.803 101.44 283.682 116.157 279.643 133.819L272.3 165.934L266.089 165.934L259.878 165.934L254.847 145.531C249.194 122.605 249.275 122.905 248.825 123.307C248.644 123.468 246.089 133.06 243.146 144.622L237.795 165.645L232.234 165.811C229.176 165.903 226.519 165.755 226.33 165.482ZM386.138 164.632C383.286 162.901 381.644 160.834 380.927 158.076C380.604 156.827 380.33 149.489 380.321 141.769L380.306 127.732H377.063H373.82V123.68V119.628H377.063H380.306V113.626V107.625L382.739 107.266C384.077 107.068 386.412 106.904 387.928 106.901L390.686 106.894V113.261V119.628H395.551H400.416V123.68V127.732H395.498H390.581L390.796 141.385L391.013 155.038L392.833 156.435C394.166 157.457 395.424 157.831 397.536 157.831H400.419V161.883V165.934H394.352C389.129 165.934 387.984 165.754 386.138 164.632ZM406.902 132.941V99.9483L412.578 99.9477L418.254 99.9472L418.054 112.103C417.944 118.789 418.047 124.259 418.283 124.259C418.518 124.259 419.63 123.568 420.752 122.724C423.733 120.482 426.486 119.628 430.742 119.628C437.958 119.628 443.496 123.906 445.14 130.749C445.514 132.302 446.012 140.854 446.248 149.754L446.677 165.935H440.735H434.793V149.814C434.793 139.508 434.533 133.029 434.074 131.853C432.03 126.622 421.564 127.414 419.423 132.962C418.961 134.158 418.633 138.59 418.609 143.939C418.586 148.874 418.382 155.841 418.149 159.423L417.728 165.935H412.314H406.899L406.902 132.941ZM500.313 143.071V120.207H504.826H509.338L509.529 124.404L509.72 128.6L512.11 125.417C514.943 121.644 517.043 120.417 521.592 119.878L524.964 119.479V124.717V129.955L520.586 130.351C511.571 131.166 511.133 132.107 510.818 151.319L510.58 165.935H505.448H500.316L500.313 143.071ZM535.991 138.151V110.367H528.207H520.423V105.737V101.106H541.505H562.587L562.595 103.566C562.598 104.919 562.783 107.003 563.004 108.197L563.406 110.367H555.212H547.019V138.151V165.935H541.505H535.991L535.991 138.151ZM563.236 143.071V120.207H568.073H572.909L573.1 124.404L573.291 128.6L575.111 125.838C577.415 122.341 580.871 120.277 585.189 119.821L588.535 119.467V124.682V129.898L584.522 130.303C579.051 130.855 577.005 131.921 575.47 135.017C574.358 137.259 574.144 139.414 573.802 151.762L573.411 165.935H568.323H563.236L563.236 143.071ZM343.546 73.9642C338.158 72.7155 331.371 67.4109 328.974 62.5748C326.951 58.4952 326.096 51.0585 326.974 45.1981C328.27 36.5568 332.357 30.7966 339.334 27.7782C342.533 26.3944 343.802 26.1868 349.169 26.1687C354.632 26.1504 355.751 26.3318 359.031 27.7688C363.524 29.7376 368.101 34.1068 369.614 37.8725C370.267 39.496 370.857 43.198 371.059 46.9289L371.399 53.2393L355.094 52.822L338.79 52.4046V54.8666C338.79 60.7529 343.705 65.3418 350.1 65.4243C353.176 65.464 354.079 65.1837 357.34 63.1798C360.7 61.1153 361.534 60.869 365.821 60.6758C371.299 60.429 371.36 60.5101 369.049 64.9293C367.368 68.1434 363.179 71.8372 359.776 73.106C357.154 74.0835 346.493 74.6471 343.546 73.9642ZM358.522 45.1873C361.086 44.3092 358.266 37.5552 354.359 35.2178C352.472 34.0894 351.461 33.8987 348.383 34.0909C344.063 34.3606 342.614 35.2983 340.342 39.2969C338.642 42.2876 338.337 44.7001 339.601 45.1552C340.771 45.5767 357.303 45.6026 358.522 45.1873ZM234.352 46.4068V18.9125H224.946H215.54V13.4137V7.91482H240.838H266.137V13.4137V18.9125H256.731H247.325V46.4068V73.9011H240.838H234.352V46.4068ZM273.783 41.0527C273.945 22.986 274.213 8.07399 274.378 7.91482C274.542 7.75563 277.135 7.53356 280.138 7.4213L285.598 7.21719V19.7214C285.598 26.5987 285.835 32.2256 286.125 32.2256C286.415 32.2256 287.48 31.4546 288.492 30.5124C294.228 25.1701 304.775 24.6024 311.963 29.249C317.086 32.5602 317.73 35.4218 318.393 57.8387L318.851 73.3222H312.732H306.614L305.905 55.8356L305.196 38.3488L303.393 36.9655C301.771 35.7207 301.108 35.6038 296.773 35.7992C292.193 36.0055 291.85 36.1198 289.797 38.118C288.61 39.274 287.333 41.2073 286.96 42.4143C286.586 43.6213 286.081 51.1996 285.837 59.2549L285.393 73.9011H279.441H273.488L273.783 41.0527Z" fill="url(#paint1_linear_98_25)"/>
<defs>
<linearGradient id="paint0_linear_98_25" x1="0.406293" y1="94.2565" x2="188.57" y2="94.7199" gradientUnits="userSpaceOnUse">
<stop stop-color="#4C7EEF"/>
<stop offset="1" stop-color="#8E98B1"/>
</linearGradient>
<linearGradient id="paint1_linear_98_25" x1="211.647" y1="96.7054" x2="676.986" y2="96.7054" gradientUnits="userSpaceOnUse">
<stop stop-color="#9FA29A"/>
<stop offset="1" stop-color="#F1BF4E"/>
</linearGradient>
</defs>
</svg>
