<?xml version="1.0" encoding="UTF-8" standalone="no"?>
<!-- Created with Inkscape (http://www.inkscape.org/) -->

<svg
   width="180mm"
   height="50mm"
   viewBox="0 0 180 50"
   version="1.1"
   id="svg549"
   xml:space="preserve"
   inkscape:export-filename="theweathertrap_logo.svg"
   inkscape:export-xdpi="96"
   inkscape:export-ydpi="96"
   xmlns:inkscape="http://www.inkscape.org/namespaces/inkscape"
   xmlns:sodipodi="http://sodipodi.sourceforge.net/DTD/sodipodi-0.dtd"
   xmlns="http://www.w3.org/2000/svg"
   xmlns:svg="http://www.w3.org/2000/svg"><sodipodi:namedview
     id="namedview551"
     pagecolor="#ffffff"
     bordercolor="#999999"
     borderopacity="1"
     inkscape:showpageshadow="0"
     inkscape:pageopacity="0"
     inkscape:pagecheckerboard="0"
     inkscape:deskcolor="#d1d1d1"
     inkscape:document-units="mm"
     showgrid="false" /><defs
     id="defs546" /><g
     inkscape:label="Layer 1"
     inkscape:groupmode="layer"
     id="layer1"><path
       style="fill:#000000;fill-opacity:1;stroke-width:0.144865"
       d="M 4.7221251,49.93217 C 3.355423,49.602933 1.7630418,48.406896 0.86976623,47.038658 0.49677526,46.467333 0.45647796,46.266809 0.35768557,44.490442 0.29870839,43.42999 0.23085975,34.916198 0.20691583,25.570895 L 0.16335058,8.5794436 0.63764606,7.6444366 C 1.2529775,6.4313988 2.3556672,5.3255977 3.5384808,4.7354268 4.5357337,4.2378401 6.0045911,3.9931748 8.0269807,3.9877782 l 0.9712379,-0.0026 v 1.3126465 1.3126439 h -1.745921 c -0.9602574,0 -2.0037956,0.078317 -2.3189795,0.1740447 -0.812647,0.2468054 -1.8168726,1.21877 -2.0051944,1.9407884 -0.1727672,0.6624279 -0.354818,35.1005363 -0.1913702,36.2052803 0.075408,0.509716 0.2489691,0.823429 0.7648746,1.382492 1.2297757,1.332661 -1.0071042,1.202915 21.5399699,1.249401 l 20.000261,0.04124 0.826727,-0.526096 c 0.628638,-0.400041 0.949849,-0.739032 1.340569,-1.414795 l 0.513838,-0.88871 -0.129769,-17.951493 C 47.506388,14.809708 47.41308,8.7505131 47.31116,8.5065116 47.113566,8.0334423 46.150144,7.0592242 45.689336,6.8665023 45.491494,6.7837498 44.406945,6.6840281 43.279232,6.6448832 L 41.228851,6.5737281 V 5.2794529 3.9851777 l 0.97124,0.00253 c 1.509431,0.00385 3.520928,0.2565769 4.145624,0.5206963 1.551351,0.6559155 3.065593,2.2302574 3.540263,3.6807788 0.133163,0.4069088 0.187727,4.9822582 0.226408,18.9860462 l 0.05096,18.449947 -0.52116,0.875096 c -1.033194,1.734883 -1.576491,2.241579 -3.371392,3.14427 L 45.417697,50.07358 25.301454,50.0587 C 14.237525,50.050447 4.9768176,49.99359 4.7221068,49.932214 Z M 11.73208,42.498773 C 10.057663,42.336547 8.5488063,41.203653 7.6859268,39.460771 7.2250699,38.529915 7.1997862,38.398506 7.2022508,36.947146 c 0.00217,-1.40725 0.038654,-1.608286 0.4475384,-2.479433 0.9161807,-1.952097 2.2364069,-2.913782 4.4835878,-3.265977 l 1.083409,-0.169802 0.33786,-1.290096 c 0.185826,-0.709553 0.538903,-1.672433 0.784626,-2.139745 0.572829,-1.089397 1.966358,-2.444288 3.153449,-3.066006 0.88992,-0.466081 1.010892,-0.489447 2.800622,-0.541016 2.088207,-0.06016 2.550177,0.04245 3.903711,0.866949 1.597212,0.972953 2.671659,2.365134 3.270851,4.238083 l 0.340721,1.065039 1.466905,0.09975 c 1.201875,0.08174 1.634932,0.179444 2.396943,0.540897 1.110194,0.526613 2.320056,1.695437 2.847914,2.751319 1.505207,3.010897 0.178809,6.900623 -2.915049,8.548583 l -0.994231,0.529577 -8.971883,-0.02286 c -4.934532,-0.01267 -9.392747,-0.06372 -9.907145,-0.11355 z m 27.373516,-4.237964 c -0.657454,-0.406325 -1.754753,-1.599558 -1.859322,-2.021894 -0.151495,-0.611839 0.116414,-1.109104 0.624683,-1.159442 0.388292,-0.03848 0.587331,0.09283 1.45365,0.958858 1.384975,1.384504 1.451623,1.535919 0.915279,2.079576 -0.506311,0.513216 -0.53022,0.516231 -1.13429,0.142889 z M 35.96125,31.669445 C 35.321472,30.804998 33.730246,29.520323 32.657877,29.00247 32.256841,28.808811 31.494938,28.53991 30.964763,28.404916 29.888824,28.130957 29.68979,27.944962 28.854607,26.432926 28.326836,25.477432 26.875416,23.869667 26.120515,23.404328 l -0.44251,-0.272775 0.500123,-0.445106 c 0.275072,-0.244814 0.993791,-0.692422 1.597156,-0.994691 0.933353,-0.467577 1.272824,-0.558764 2.275246,-0.611155 1.48267,-0.07749 2.660262,0.139253 3.781421,0.696048 3.585762,1.780724 4.989737,6.241292 3.133789,9.956387 -0.190351,0.381028 -0.368282,0.692784 -0.395397,0.692784 -0.02713,0 -0.301207,-0.34037 -0.609093,-0.756375 z m 4.161901,-2.307484 c -0.756171,-0.308824 -0.734874,-1.309878 0.03416,-1.606253 0.203974,-0.0786 1.037767,-0.142916 1.85289,-0.142916 1.281465,0 1.53335,0.04091 1.861158,0.302283 0.217805,0.17366 0.379123,0.448418 0.379123,0.645734 0,0.197324 -0.161316,0.472067 -0.379123,0.645737 -0.331514,0.264318 -0.57091,0.301127 -1.906498,0.293042 -0.840061,-0.0049 -1.668832,-0.06702 -1.841719,-0.137627 z M 22.777592,21.593976 c -0.81291,-0.593485 -2.268415,-2.127501 -2.268415,-2.390768 0,-0.338721 0.676755,-0.924782 1.067897,-0.924782 0.256336,0 0.674976,0.313614 1.438671,1.077738 1.117062,1.117695 1.376629,1.62579 1.121042,2.194386 -0.239435,0.532677 -0.670214,0.546434 -1.359195,0.04344 z m 14.214773,0.0066 c -0.123202,-0.178288 -0.22398,-0.449252 -0.22398,-0.602152 0,-0.154073 0.537014,-0.822335 1.204542,-1.498964 1.300371,-1.318108 1.701572,-1.483903 2.248741,-0.929269 0.45661,0.462833 0.355368,0.913195 -0.395628,1.759872 -1.34343,1.514552 -2.352396,1.966934 -2.833665,1.270462 z M 30.437364,19.33676 c -0.651948,-0.227873 -0.719437,-0.445553 -0.719437,-2.320644 0,-1.606046 0.03105,-1.832015 0.287776,-2.092208 0.372198,-0.377277 0.891176,-0.371706 1.234871,0.01323 0.224117,0.251039 0.280014,0.579849 0.316098,1.859578 0.04628,1.640302 -0.06691,2.087719 -0.615707,2.433916 -0.158283,0.09986 -0.384895,0.147599 -0.503601,0.106112 z m 6.124887,-9.218085 C 35.791592,9.603762 35.771784,9.4827241 35.766272,5.2541533 c -0.0056,-4.29781937 0.03905,-4.55871292 0.853511,-4.98562939 0.948765,-0.49731945 2.008211,-0.007437 2.301886,1.06431459 0.08135,0.2969009 0.147646,2.0904073 0.148098,4.0061665 0.0011,3.8740049 -0.0716,4.2624789 -0.889831,4.768145 -0.5974,0.369197 -1.077326,0.372626 -1.617681,0.01157 z m -24.59185,-0.02727 C 11.377806,9.7422762 11.300419,9.1577305 11.300419,5.0303993 c 0,-3.6795612 0.01767,-3.9455648 0.282897,-4.28750019 0.681395,-0.87806917 1.843462,-0.88457588 2.597082,-0.0146001 l 0.455883,0.52630209 -0.05835,4.0269703 C 14.545851,7.4964049 14.473103,9.4104644 14.416299,9.5350339 14.14051,10.139843 12.634161,10.482482 11.9704,10.091382 Z M 16.624234,5.2977444 V 3.9851006 h 8.561263 8.561258 v 1.3126438 1.3126439 h -8.561258 -8.561263 z"
       id="path691" /><path
       style="fill:#000000;stroke-width:0.162124"
       d="m 168.9038,49.235674 c -0.18665,-0.04453 -0.30784,-0.301462 -0.37066,-0.786263 -0.068,-0.525433 0.0788,-11.836951 0.21108,-16.30297 0.007,-0.229051 0.18267,-0.268021 1.20936,-0.268021 h 1.20146 v 0.689165 c 0,0.379043 0.046,0.689167 0.1024,0.689167 0.0567,0 0.45325,-0.275598 0.88216,-0.612443 0.92401,-0.725737 1.84087,-0.981109 3.147,-0.876473 2.81034,0.225126 4.01157,1.961783 3.99587,5.777063 -0.0198,4.845101 -1.83969,7.096593 -5.38385,6.66163 -0.67994,-0.08342 -1.02565,-0.242444 -1.69539,-0.779707 -0.46266,-0.371195 -0.88776,-0.674887 -0.94474,-0.674887 -0.0569,0 -0.10345,1.481703 -0.10345,3.292684 v 3.292674 l -0.98689,-0.01776 c -0.54282,-0.01 -1.1117,-0.0476 -1.26435,-0.08382 z m 6.12233,-7.493442 c 0.95601,-0.40481 1.33412,-1.322281 1.41879,-3.44331 0.0872,-2.190046 -0.19891,-3.269266 -1.03424,-3.896467 -0.48845,-0.366739 -0.65882,-0.405212 -1.54189,-0.348217 -1.66123,0.107215 -2.30062,0.868039 -2.52102,2.999696 -0.15913,1.538365 -0.0128,2.979927 0.36746,3.637182 0.66828,1.153082 2.04092,1.588863 3.3109,1.051116 z m -94.709865,2.379016 c -1.621019,-0.351972 -3.13642,-1.483236 -3.88578,-2.900797 -0.422225,-0.798721 -0.445021,-0.969115 -0.440431,-3.292674 0.005,-2.209625 0.04463,-2.539431 0.409343,-3.356828 0.466485,-1.045345 1.495813,-2.113286 2.495849,-2.589465 0.562723,-0.267966 0.986847,-0.330795 2.238921,-0.331684 1.396387,-9.01e-4 1.634011,0.04303 2.475039,0.458346 1.75667,0.867528 2.56867,2.344272 2.715754,4.939023 l 0.08906,1.569772 h -3.884221 -3.884208 v 0.355072 c 0,0.805065 0.523283,1.916992 1.123436,2.38718 0.513192,0.402076 0.742473,0.473849 1.513395,0.473849 0.734846,0 1.067012,-0.0937 1.737102,-0.489675 0.633808,-0.37461 1.067229,-0.505097 1.844329,-0.555262 0.558697,-0.03607 1.083529,-0.005 1.166294,0.06869 0.220783,0.197009 -0.38637,1.303516 -1.104362,2.01266 -1.029889,1.017204 -3.100265,1.579443 -4.609457,1.25177 z m 3.124136,-7.560198 c 0.256563,-0.275846 0.09133,-1.114245 -0.346196,-1.756144 -0.624378,-0.916141 -1.944576,-1.333081 -2.938837,-0.928131 -0.842457,0.343113 -1.85434,2.460622 -1.320088,2.762485 0.131622,0.07437 1.175968,0.136268 2.320785,0.137552 1.594047,0.0019 2.12898,-0.04873 2.284336,-0.215762 z m 7.162261,7.506186 c -1.463193,-0.356938 -2.318632,-1.162769 -2.686372,-2.530582 -0.448379,-1.667746 0.470137,-3.38524 2.23592,-4.180853 0.790766,-0.356297 1.237268,-0.437629 2.867458,-0.522347 l 1.930853,-0.100348 v -0.8242 c 0,-1.503449 -0.683379,-2.345855 -1.902983,-2.345855 -0.739276,0 -1.376265,0.401868 -1.972219,1.244258 l -0.419898,0.593513 h -1.1771 -1.177113 l 0.143843,-0.687068 c 0.430253,-2.054998 2.08492,-3.142813 4.777401,-3.140776 1.578184,0.0012 2.231183,0.203412 3.08307,0.954736 1.292175,1.13967 1.404315,1.474459 1.572425,4.695018 0.0817,1.56701 0.15171,3.727799 0.1553,4.801741 l 0.007,1.952644 h -1.373075 -1.373053 v -0.612591 c 0,-0.72603 -0.214524,-0.772614 -0.782785,-0.17 -0.77174,0.818379 -2.525586,1.21 -3.908347,0.8727 z m 3.065001,-2.389747 c 0.687398,-0.379083 1.148569,-1.202403 1.245875,-2.224263 0.105077,-1.103304 -0.112558,-1.228667 -1.694915,-0.976329 -1.434021,0.228671 -2.219331,0.646059 -2.424637,1.288653 -0.209026,0.654264 -0.03853,1.439653 0.403772,1.859731 0.494455,0.469653 1.667966,0.494455 2.469905,0.05224 z m 65.238947,2.417597 c -0.37603,-0.08886 -0.98095,-0.430096 -1.39714,-0.788196 -0.59743,-0.513953 -0.77158,-0.794705 -0.93557,-1.508007 -0.35506,-1.543437 0.0772,-2.92233 1.22176,-3.901633 0.8477,-0.725132 1.58339,-0.932871 3.73341,-1.054261 l 1.93839,-0.10945 -0.0664,-1.050837 c -0.0562,-0.88287 -0.13784,-1.114472 -0.51262,-1.44888 -0.90403,-0.806608 -2.88112,-0.521267 -3.15585,0.455472 -0.0817,0.289909 -0.25327,0.39128 -0.7935,0.468364 -0.83901,0.119716 -1.85518,-0.03222 -1.96792,-0.294312 -0.11202,-0.260395 0.36356,-1.242762 0.91241,-1.884861 1.32014,-1.544442 4.88115,-1.751317 6.86809,-0.399021 1.07109,0.728942 1.292,1.371745 1.44344,4.199693 0.0747,1.389819 0.1396,3.577927 0.14476,4.862454 l 0.0101,2.335506 h -1.09453 c -1.23454,0 -1.56079,-0.195263 -1.38289,-0.827669 0.16119,-0.572911 -0.18219,-0.507674 -1.03959,0.197583 -1.01482,0.834669 -2.42306,1.103007 -3.92567,0.748055 z m 3.29065,-2.418932 c 0.72524,-0.394562 1.22566,-1.36801 1.23058,-2.393853 l 0.004,-0.789551 -1.4159,0.08372 c -0.77875,0.046 -1.58577,0.139827 -1.79315,0.208402 -0.5793,0.191481 -0.96731,0.845024 -0.96731,1.629291 0,0.594565 0.0829,0.767219 0.54623,1.136545 0.66628,0.531211 1.56355,0.578195 2.39584,0.125443 z m -39.01324,2.088482 c -1.6426,-0.694111 -2.62196,-1.939315 -3.09144,-3.930935 -0.32053,-1.359748 -0.31941,-2.377349 0.005,-3.741033 0.34733,-1.463011 0.96158,-2.514244 1.9523,-3.341167 1.84523,-1.540107 4.44062,-1.549082 6.34417,-0.022 1.36563,1.095599 2.08487,2.785768 2.08487,4.899469 v 0.987922 h -3.86168 -3.86169 v 0.54094 c 0,0.297513 0.11989,0.797162 0.2665,1.110324 0.79246,1.692615 2.69658,2.192254 4.11623,1.080034 0.49894,-0.39085 0.78576,-0.483042 1.70912,-0.54918 1.38311,-0.09905 1.51434,0.08599 0.84217,1.187982 -0.59549,0.976115 -1.56124,1.767115 -2.41659,1.97904 -1.20316,0.298109 -3.13098,0.203129 -4.08842,-0.20144 z m 4.45292,-7.559774 c -0.29749,-1.541377 -1.26374,-2.48698 -2.54237,-2.488091 -1.14773,-9.02e-4 -2.33501,1.378659 -2.33868,2.717803 -10e-4,0.341593 0.0205,0.344583 2.49542,0.344583 h 2.49643 z m -67.590391,7.65243 c -0.10018,-0.144624 -0.682047,-2.620868 -2.607045,-11.094758 -0.70277,-3.093578 -1.277757,-5.739486 -1.277757,-5.879795 0,-0.224082 0.169356,-0.244749 1.392488,-0.169949 0.765864,0.04686 1.451129,0.142832 1.522805,0.213317 0.07167,0.07053 0.643175,2.569836 1.270003,5.554116 0.626838,2.984279 1.178615,5.460673 1.22617,5.503117 0.0476,0.04246 0.157676,0.01279 0.244704,-0.06586 0.139059,-0.12559 1.246746,-4.014327 2.674545,-9.389412 l 0.462793,-1.742223 1.132656,0.103547 c 0.622969,0.05695 1.14478,0.11733 1.159578,0.134164 0.01482,0.01687 0.690546,2.572437 1.501631,5.6791 0.811082,3.106664 1.515952,5.685288 1.566371,5.730287 0.194068,0.173157 0.291701,-0.177392 0.934362,-3.355021 0.364422,-1.801881 0.919524,-4.430506 1.233577,-5.841381 l 0.570968,-2.565233 h 1.412367 c 0.776816,0 1.460973,0.07018 1.520368,0.155913 0.05942,0.08574 -0.766314,3.979497 -1.834912,8.65276 l -1.942897,8.49685 -1.643264,1.1e-4 -1.643251,9.7e-5 -1.331218,-5.398465 c -1.495782,-6.065826 -1.474248,-5.986377 -1.593352,-5.880101 -0.04774,0.04264 -0.723907,2.580481 -1.502566,5.639737 l -1.415768,5.562249 -1.471174,0.04403 c -0.809153,0.0243 -1.512137,-0.01505 -1.562182,-0.08732 z M 102.32896,43.63254 c -0.75449,-0.458183 -1.18888,-1.004843 -1.37867,-1.734772 -0.0855,-0.33041 -0.15798,-2.271965 -0.16022,-4.314575 l -0.004,-3.713837 h -0.858101 -0.85814 v -1.072044 -1.07203 h 0.85814 0.858141 v -1.588019 -1.588019 l 0.64357,-0.0949 c 0.354,-0.05224 0.97195,-0.0957 1.37307,-0.09661 l 0.7295,-0.0018 v 1.684622 1.684632 h 1.28718 1.28723 v 1.072033 1.072041 h -1.30109 -1.30096 l 0.0569,3.612447 0.0573,3.612448 0.48155,0.369397 c 0.35267,0.270561 0.6856,0.369396 1.24431,0.369396 h 0.76275 v 1.072049 1.072026 h -1.60511 c -1.38202,0 -1.68395,-0.04787 -2.17249,-0.344587 z m 5.494,-8.384852 v -8.729445 l 1.50171,-1.49e-4 1.50183,-1.48e-4 -0.0529,3.216266 c -0.0292,1.768921 -0.002,3.216251 0.0605,3.216251 0.0621,0 0.35646,-0.18274 0.6533,-0.406082 0.78854,-0.593322 1.51708,-0.819099 2.64318,-0.819099 1.90909,0 3.37436,1.131707 3.80952,2.942253 0.0989,0.410959 0.2307,2.673728 0.29313,5.028382 l 0.11354,4.2812 h -1.57226 -1.57224 v -4.265294 c 0,-2.726677 -0.0686,-4.440943 -0.19022,-4.752235 -0.54072,-1.383956 -3.30984,-1.174364 -3.87632,0.293401 -0.12221,0.316452 -0.20911,1.489079 -0.21539,2.904504 -0.006,1.305587 -0.06,3.149108 -0.12169,4.096709 l -0.1113,1.722915 h -1.43262 -1.43262 z m 24.71489,2.680089 V 31.87842 h 1.19392 1.19391 l 0.0506,1.110324 0.0506,1.110325 0.63229,-0.842317 c 0.74943,-0.99831 1.30503,-1.322836 2.50882,-1.465325 l 0.89218,-0.105613 v 1.385879 1.385866 l -1.15851,0.104708 c -2.3851,0.215576 -2.5011,0.464641 -2.58432,5.54786 l -0.0629,3.86699 h -1.35791 -1.35793 z m 9.43975,-1.301757 v -7.351113 h -2.05959 -2.05948 v -1.225181 -1.225182 h 5.57795 5.57809 l 0.002,0.650872 c 8.4e-4,0.357992 0.0499,0.909319 0.10821,1.225194 l 0.10648,0.574297 h -2.16795 -2.16782 v 7.351113 7.351097 h -1.45887 -1.45887 V 36.62602 Z m 7.20856,1.301757 V 31.87842 h 1.27974 1.27971 l 0.0505,1.110324 0.0505,1.110325 0.48147,-0.730873 c 0.60956,-0.925321 1.52403,-1.471279 2.66662,-1.592029 l 0.8852,-0.09358 v 1.379881 1.379889 l -1.06182,0.107187 c -1.44759,0.14615 -1.98891,0.428024 -2.39504,1.247395 -0.29407,0.593099 -0.35073,1.163141 -0.44116,4.43041 l -0.10361,3.749742 h -1.34601 -1.34599 z M 91.059977,19.643268 C 89.634418,19.312894 87.838592,17.909374 87.20428,16.629836 86.66919,15.550449 86.442809,13.582822 86.675312,12.032252 87.01814,9.7458996 88.099499,8.2218455 89.945517,7.4232333 90.791843,7.0571 91.127504,7.0021663 92.547685,6.9973758 c 1.445491,-0.00484 1.741552,0.04316 2.609245,0.4233693 1.188813,0.5209145 2.399697,1.6769427 2.800137,2.6732649 0.17267,0.429566 0.32891,1.409058 0.38221,2.396181 l 0.09,1.669615 -4.313912,-0.110409 -4.313908,-0.110423 v 0.651387 c 0,1.557434 1.300637,2.771583 2.992393,2.793401 0.813867,0.01051 1.053008,-0.06367 1.91577,-0.593851 0.888846,-0.546238 1.109577,-0.611415 2.243797,-0.662518 1.44935,-0.06531 1.46563,-0.04384 0.85415,1.125403 -0.44475,0.850408 -1.553118,1.827723 -2.453548,2.163431 -0.693637,0.25861 -3.5144,0.407744 -4.294162,0.227041 z m 3.96233,-7.613889 c 0.678462,-0.232317 -0.06783,-2.019305 -1.101568,-2.6377408 -0.499055,-0.298555 -0.766635,-0.3490153 -1.581162,-0.2981738 -1.142982,0.071349 -1.52621,0.3194624 -2.127468,1.3774366 -0.449701,0.791291 -0.530423,1.429596 -0.195994,1.550005 0.309687,0.111506 4.68367,0.118902 5.006192,0.009 z M 62.168863,12.352058 V 5.0775263 H 59.680201 57.191539 V 3.6226196 2.1677137 h 6.693633 6.693656 v 1.4549059 1.4549067 h -2.488672 -2.488652 v 7.2745317 7.274525 h -1.716332 -1.716309 z m 10.43281,-1.416621 c 0.04296,-4.7801326 0.113773,-8.7256084 0.157422,-8.7677233 0.04363,-0.042117 0.729445,-0.1008749 1.52401,-0.1305763 l 1.444673,-0.054003 v 3.3083972 c 0,1.8196189 0.06279,3.3083981 0.13951,3.3083981 0.07671,0 0.358527,-0.2039692 0.626197,-0.4532637 1.517631,-1.413481 4.308229,-1.5636948 6.210213,-0.3342869 1.355376,0.8760978 1.52564,1.6332158 1.701078,7.5643499 l 0.121189,4.0967 H 82.907137 81.288321 L 81.100679,14.846745 80.91305,10.220048 80.436167,9.8540277 C 80.00706,9.5246852 79.831564,9.4937639 78.684651,9.5454446 c -1.211825,0.054596 -1.302773,0.084826 -1.845771,0.6135334 -0.31412,0.305855 -0.651984,0.81738 -0.750799,1.136724 -0.09883,0.319341 -0.232483,2.324437 -0.297019,4.455749 l -0.117368,3.87513 h -1.575039 -1.575044 z"
       id="path829" /></g></svg>
