<?xml version="1.0" encoding="UTF-8" standalone="no"?>
<!-- Created with Inkscape (http://www.inkscape.org/) -->

<svg
   width="130mm"
   height="50mm"
   viewBox="0 0 130 50"
   version="1.1"
   id="svg717"
   xml:space="preserve"
   xmlns="http://www.w3.org/2000/svg"
   xmlns:svg="http://www.w3.org/2000/svg"><defs
     id="defs714" /><g
     id="layer1"><path
       style="fill:#000000;stroke-width:0.171185"
       d="m 118.88791,50.040935 c -0.19718,-0.04699 -0.32513,-0.318309 -0.39146,-0.830193 -0.0719,-0.5548 0.0827,-12.498322 0.22291,-17.213876 0.007,-0.241843 0.19283,-0.282984 1.27696,-0.282984 h 1.26854 v 0.727671 c 0,0.40022 0.0486,0.727673 0.10812,0.727673 0.0594,0 0.4786,-0.291003 0.93143,-0.646672 0.97562,-0.766284 1.94377,-1.035923 3.32289,-0.925444 2.96738,0.23771 4.23569,2.071399 4.21908,6.099853 -0.0211,5.115809 -1.94239,7.493095 -5.68467,7.03383 -0.7179,-0.0881 -1.08292,-0.255984 -1.79003,-0.823266 -0.48853,-0.391929 -0.93742,-0.712599 -0.99752,-0.712599 -0.0601,0 -0.1093,1.564496 -0.1093,3.476656 v 3.476654 l -1.04201,-0.01877 c -0.57311,-0.01038 -1.17384,-0.05018 -1.33494,-0.08855 z m 6.46436,-7.912121 c 1.00944,-0.42743 1.40861,-1.396155 1.49809,-3.635712 0.0924,-2.312398 -0.21009,-3.451925 -1.09209,-4.114161 -0.51575,-0.38724 -0.69561,-0.427858 -1.62801,-0.367678 -1.75399,0.113208 -2.42913,0.916542 -2.66188,3.167305 -0.16797,1.624312 -0.0141,3.146414 0.388,3.8404 0.70559,1.217512 2.15493,1.67764 3.49589,1.109846 z M 25.350635,44.640742 c -1.71159,-0.371627 -3.311652,-1.566097 -4.102878,-3.062861 -0.44582,-0.843356 -0.469884,-1.023263 -0.46504,-3.476656 0.0046,-2.333085 0.04707,-2.681312 0.432215,-3.544378 0.492551,-1.103754 1.57939,-2.231365 2.635294,-2.734155 0.594177,-0.282929 1.041986,-0.349268 2.364025,-0.350209 1.474402,-9.53e-4 1.725304,0.04541 2.613317,0.483956 1.854823,0.915992 2.712186,2.475247 2.867489,5.214982 l 0.09395,1.657476 h -4.101235 -4.101238 v 0.374912 c 0,0.850045 0.552523,2.024098 1.186202,2.520556 0.541876,0.424537 0.783961,0.500335 1.597967,0.500335 0.775893,0 1.126628,-0.09888 1.834151,-0.517045 0.669223,-0.395537 1.126868,-0.533315 1.947381,-0.586274 0.589916,-0.03808 1.14407,-0.0054 1.231455,0.07253 0.233118,0.208013 -0.407954,1.376342 -1.166061,2.125107 -1.087445,1.074042 -3.273495,1.667699 -4.866999,1.321711 z m 3.298704,-7.982605 c 0.270891,-0.291251 0.09637,-1.176502 -0.365544,-1.854268 -0.659263,-0.967322 -2.053227,-1.407558 -3.103041,-0.979988 -0.889526,0.362288 -1.957942,2.59811 -1.393844,2.916834 0.138976,0.07853 1.241681,0.143886 2.450457,0.145248 1.68311,0.0019 2.247932,-0.05146 2.411972,-0.227826 z m 7.562437,7.925575 c -1.544945,-0.376872 -2.448187,-1.227728 -2.836469,-2.671969 -0.473427,-1.76093 0.496411,-3.574388 2.360852,-4.414447 0.834939,-0.3762 1.306397,-0.462082 3.027673,-0.551532 l 2.03874,-0.105951 v -0.870259 c 0,-1.587442 -0.721561,-2.476921 -2.009318,-2.476921 -0.780586,0 -1.453152,0.424319 -2.082414,1.313782 l -0.443348,0.626676 h -1.24288 -1.24288 l 0.151886,-0.725457 c 0.454294,-2.169827 2.2014,-3.318417 5.044328,-3.316263 1.666353,0.0012 2.35584,0.214774 3.255325,1.008075 1.364414,1.203344 1.482803,1.55684 1.660277,4.957345 0.08635,1.654564 0.160156,3.936081 0.164008,5.070036 l 0.007,2.061738 h -1.449794 -1.44977 v -0.64682 c 0,-0.766591 -0.226509,-0.815783 -0.826522,-0.179503 -0.814864,0.864117 -2.666702,1.277619 -4.126719,0.921466 z m 3.236257,-2.523265 c 0.725794,-0.400258 1.212731,-1.269583 1.315483,-2.348527 0.110943,-1.164949 -0.118849,-1.297319 -1.789614,-1.030893 -1.514143,0.241452 -2.343338,0.682156 -2.560109,1.360657 -0.220706,0.690819 -0.04067,1.520095 0.426322,1.963647 0.522093,0.495892 1.761165,0.522079 2.607918,0.05512 z m 68.884077,2.552676 c -0.39709,-0.0938 -1.03581,-0.454118 -1.47527,-0.832237 -0.63071,-0.542671 -0.81461,-0.8391 -0.98783,-1.592259 -0.37482,-1.629666 0.0811,-3.085608 1.29001,-4.119633 0.89515,-0.765638 1.67192,-0.984986 3.94206,-1.113162 l 2.04668,-0.11556 -0.0703,-1.109558 c -0.0591,-0.932192 -0.14555,-1.176742 -0.54126,-1.529831 -0.95447,-0.851679 -3.04206,-0.550387 -3.33213,0.480913 -0.0861,0.306117 -0.26744,0.413146 -0.83783,0.494533 -0.88594,0.126411 -1.95892,-0.03404 -2.0779,-0.310744 -0.11826,-0.274955 0.38384,-1.312208 0.96337,-1.990174 1.39394,-1.630736 5.15389,-1.849181 7.25185,-0.421316 1.13089,0.769671 1.36415,1.44838 1.52404,4.434343 0.0786,1.467473 0.1474,3.777831 0.15295,5.134131 l 0.0101,2.465999 h -1.15575 c -1.30345,0 -1.64793,-0.206176 -1.46012,-0.87391 0.17016,-0.604932 -0.19233,-0.53604 -1.0977,0.208618 -1.0715,0.881302 -2.55839,1.164639 -4.14498,0.789847 z m 3.47447,-2.554074 c 0.7658,-0.416613 1.29417,-1.444452 1.29935,-2.527616 l 0.004,-0.833659 -1.49507,0.08839 c -0.82229,0.04862 -1.6743,0.147641 -1.89335,0.22005 -0.61163,0.20218 -1.02129,0.892239 -1.02129,1.720337 0,0.62778 0.0876,0.810076 0.57672,1.200037 0.70352,0.560903 1.65093,0.61051 2.52967,0.132455 z m -41.193084,2.20517 c -1.734377,-0.732897 -2.768334,-2.047672 -3.264082,-4.150568 -0.338464,-1.435727 -0.337218,-2.510188 0.0048,-3.950065 0.366705,-1.544755 1.015273,-2.654722 2.061375,-3.527847 1.948315,-1.626154 4.688779,-1.635636 6.698677,-0.02318 1.441944,1.15681 2.201348,2.941424 2.201348,5.173213 v 1.043123 h -4.077478 -4.077485 v 0.571161 c 0,0.314137 0.126651,0.8417 0.281445,1.172359 0.836658,1.787188 2.847252,2.314742 4.346204,1.140383 0.52676,-0.412693 0.829699,-0.510036 1.804616,-0.579864 1.460382,-0.104599 1.59889,0.09079 0.889164,1.254361 -0.62865,1.030649 -1.648479,1.865848 -2.551541,2.089609 -1.270368,0.314771 -3.305957,0.214479 -4.316833,-0.212688 z m 4.701739,-7.982173 c -0.314131,-1.627489 -1.334329,-2.625937 -2.684322,-2.6271 -1.211952,-9.54e-4 -2.465534,1.455684 -2.469465,2.869656 -0.0014,0.360677 0.02184,0.363836 2.63491,0.363836 h 2.635924 z M 3.9483862,44.362043 C 3.8426166,44.209338 3.2282429,41.594747 1.1956824,32.647383 c -0.74202963,-3.266426 -1.34914463,-6.06017 -1.34914463,-6.208318 0,-0.236601 0.1788207,-0.258425 1.47028513,-0.179439 0.8086567,0.04946 1.5322058,0.150814 1.607887,0.225238 0.075681,0.07443 0.6791187,2.713421 1.3409728,5.864439 0.6618551,3.151017 1.2444593,5.765785 1.2946754,5.810595 0.05022,0.04482 0.1664911,0.01355 0.2583852,-0.06945 0.1468117,-0.132616 1.3163911,-4.238618 2.8239765,-9.914029 l 0.4886512,-1.839567 1.195942,0.109332 c 0.657768,0.06013 1.208734,0.123882 1.22437,0.141665 0.01564,0.01778 0.729118,2.716165 1.585516,5.996404 0.856399,3.28024 1.600655,6.002946 1.653901,6.050459 0.204906,0.182839 0.307991,-0.187306 0.986566,-3.542476 0.384786,-1.902561 0.970906,-4.678052 1.302488,-6.167759 l 0.602874,-2.708558 h 1.491289 c 0.82021,0 1.5426,0.07408 1.605311,0.164623 0.06272,0.09055 -0.809132,4.20184 -1.937433,9.136217 l -2.051458,8.971596 -1.73507,1.08e-4 -1.735069,1.09e-4 -1.405595,-5.700097 c -1.579353,-6.404742 -1.556624,-6.32086 -1.682383,-6.208643 -0.05041,0.04498 -0.764351,2.724664 -1.5865251,5.95484 l -1.49486,5.873047 -1.5533801,0.04653 c -0.8543608,0.0256 -1.5966219,-0.0159 -1.6494686,-0.0922 z M 48.59325,44.124732 c -0.796612,-0.48378 -1.255312,-1.060986 -1.455635,-1.831694 -0.09067,-0.348869 -0.166813,-2.39891 -0.169191,-4.555649 l -0.0043,-3.921343 H 46.058057 45.15195 v -1.131935 -1.131934 h 0.906107 0.906107 v -1.676744 -1.676744 l 0.679581,-0.100228 c 0.373768,-0.05513 1.026166,-0.101029 1.44977,-0.102013 l 0.770192,-0.0018 v 1.778753 1.778754 h 1.359161 1.359159 v 1.131935 1.131934 h -1.373758 -1.373762 l 0.05991,3.814285 0.05991,3.814285 0.508464,0.390042 c 0.372423,0.285685 0.72395,0.390042 1.313855,0.390042 h 0.805391 v 1.131934 1.131935 h -1.694804 c -1.459247,0 -1.778072,-0.05057 -2.29391,-0.363837 z m 5.800927,-8.853342 v -9.217179 l 1.585688,-1.62e-4 1.585687,-1.61e-4 -0.05548,3.395978 c -0.03052,1.86776 -0.0015,3.39595 0.06445,3.39595 0.06596,0 0.37635,-0.192945 0.689752,-0.428767 0.832575,-0.626472 1.601869,-0.864872 2.790873,-0.864872 2.015754,0 3.562923,1.194939 4.022395,3.106651 0.10429,0.433917 0.243568,2.823119 0.309508,5.30934 l 0.119891,4.5204 h -1.66012 -1.660123 V 39.98496 c 0,-2.879028 -0.07246,-4.689078 -0.20087,-5.017764 -0.570885,-1.46128 -3.494709,-1.239975 -4.09291,0.309794 -0.128971,0.334132 -0.22076,1.572279 -0.227351,3.066792 -0.0061,1.378534 -0.06391,3.325057 -0.128529,4.325605 l -0.117473,1.819181 h -1.512689 -1.512693 z m 26.095877,2.829835 v -6.387343 h 1.26061 1.260609 l 0.05322,1.17236 0.05322,1.172361 0.667643,-0.889377 c 0.791293,-1.054093 1.377965,-1.396754 2.648959,-1.547199 l 0.942101,-0.111515 v 1.463307 1.463304 l -1.223245,0.110561 c -2.51835,0.227614 -2.640857,0.490602 -2.728753,5.857836 l -0.06684,4.083048 h -1.433774 -1.433772 z m 9.967168,-1.374491 v -7.761835 h -2.174647 -2.17466 V 27.67126 26.37762 h 5.889691 5.889701 l 0.002,0.687246 c 9.43e-4,0.377986 0.05253,0.960123 0.114324,1.293639 l 0.112326,0.606394 h -2.288982 -2.288972 v 7.761835 7.761834 h -1.540385 -1.540384 v -7.761834 z m 7.611301,1.374491 v -6.387343 h 1.351234 1.351213 l 0.0531,1.17236 0.0531,1.172361 0.50838,-0.771719 c 0.64362,-0.977019 1.60918,-1.553478 2.81561,-1.680975 l 0.93472,-0.09878 v 1.456981 1.456982 l -1.12112,0.11318 c -1.52856,0.154314 -2.10004,0.45194 -2.52892,1.317088 -0.31045,0.626236 -0.37036,1.228128 -0.46574,4.677959 l -0.10945,3.959249 H 99.489447 98.06824 Z M 36.694643,18.795101 C 35.189427,18.446278 33.293268,16.964329 32.623517,15.613304 32.05853,14.47361 31.819497,12.396042 32.06499,10.75884 c 0.361988,-2.4141019 1.503756,-4.0233103 3.45292,-4.8665432 0.893618,-0.386591 1.248036,-0.4445933 2.747563,-0.4496513 1.526253,-0.00514 1.838869,0.045575 2.755039,0.4470246 1.255229,0.5500191 2.533773,1.770639 2.956576,2.822629 0.182292,0.453568 0.347245,1.4877839 0.403533,2.5300639 l 0.09521,1.762903 -4.55495,-0.116584 -4.554947,-0.116585 v 0.687774 c 0,1.644456 1.37331,2.926439 3.159596,2.949479 0.859337,0.01108 1.111842,-0.06718 2.022809,-0.627027 0.938506,-0.576762 1.17157,-0.645579 2.369174,-0.699542 1.530369,-0.06895 1.547558,-0.04631 0.901882,1.188284 -0.469598,0.897923 -1.639919,1.929851 -2.590661,2.284318 -0.732381,0.273053 -3.71076,0.43052 -4.534088,0.239718 z m 4.183719,-8.039303 c 0.716368,-0.245291 -0.07161,-2.1321249 -1.163118,-2.7851149 -0.526938,-0.315236 -0.809466,-0.368516 -1.669508,-0.314834 -1.206846,0.07534 -1.611483,0.337312 -2.24634,1.454399 -0.474827,0.8355029 -0.560046,1.5094709 -0.206938,1.6366089 0.326986,0.117733 4.945364,0.125545 5.285904,0.009 z M 6.1892871,11.096508 V 3.4155269 H 3.5615766 0.93386623 V 1.8793303 0.34313403 H 8.0015007 15.069135 V 1.8793303 3.4155269 H 12.441423 9.8137151 v 7.6809811 7.680983 H 8.0015007 6.1892871 Z M 17.205015,9.6007391 c 0.04534,-5.0472142 0.120132,-9.21313657 0.166213,-9.25760507 0.04608,-0.044471 0.770203,-0.106511 1.609165,-0.1378724 l 1.525384,-0.057023 V 3.641487 c 0,1.9212869 0.06629,3.4932491 0.147315,3.4932491 0.08102,0 0.378553,-0.2153653 0.661172,-0.478589 1.602438,-1.4924562 4.548953,-1.6510628 6.557203,-0.3529641 1.431116,0.9250481 1.610892,1.7244691 1.796136,7.986993 l 0.127951,4.325604 H 28.086282 26.377011 L 26.17889,13.730578 25.98077,8.8453761 25.477245,8.4589051 c -0.453072,-0.347744 -0.638382,-0.380393 -1.849377,-0.325825 -1.279529,0.05765 -1.375563,0.08957 -1.948896,0.647813 -0.331674,0.322945 -0.688413,0.863051 -0.792753,1.2002369 -0.104337,0.337187 -0.245468,2.454306 -0.313623,4.704711 l -0.123917,4.091645 h -1.663045 -1.663047 z"
       id="path829" /></g></svg>
