<?xml version="1.0" encoding="UTF-8" standalone="no"?>
<!-- Created with Inkscape (http://www.inkscape.org/) -->

<svg
   width="50mm"
   height="50mm"
   viewBox="0 0 50 50"
   version="1.1"
   id="svg549"
   xml:space="preserve"
   xmlns="http://www.w3.org/2000/svg"
   xmlns:svg="http://www.w3.org/2000/svg"><defs
     id="defs546" /><g
     id="layer1"><path
       style="fill:#000000;fill-opacity:1;stroke-width:0.144865"
       d="M 4.7221251,49.93217 C 3.355423,49.602933 1.7630418,48.406896 0.86976623,47.038658 0.49677526,46.467333 0.45647796,46.266809 0.35768557,44.490442 0.29870839,43.42999 0.23085975,34.916198 0.20691583,25.570895 L 0.16335058,8.5794436 0.63764606,7.6444366 C 1.2529775,6.4313988 2.3556672,5.3255977 3.5384808,4.7354268 4.5357337,4.2378401 6.0045911,3.9931748 8.0269807,3.9877782 l 0.9712379,-0.0026 v 1.3126465 1.3126439 h -1.745921 c -0.9602574,0 -2.0037956,0.078317 -2.3189795,0.1740447 -0.812647,0.2468054 -1.8168726,1.21877 -2.0051944,1.9407884 -0.1727672,0.6624279 -0.354818,35.1005363 -0.1913702,36.2052803 0.075408,0.509716 0.2489691,0.823429 0.7648746,1.382492 1.2297757,1.332661 -1.0071042,1.202915 21.5399699,1.249401 l 20.000261,0.04124 0.826727,-0.526096 c 0.628638,-0.400041 0.949849,-0.739032 1.340569,-1.414795 l 0.513838,-0.88871 -0.129769,-17.951493 C 47.506388,14.809708 47.41308,8.7505131 47.31116,8.5065116 47.113566,8.0334423 46.150144,7.0592242 45.689336,6.8665023 45.491494,6.7837498 44.406945,6.6840281 43.279232,6.6448832 L 41.228851,6.5737281 V 5.2794529 3.9851777 l 0.97124,0.00253 c 1.509431,0.00385 3.520928,0.2565769 4.145624,0.5206963 1.551351,0.6559155 3.065593,2.2302574 3.540263,3.6807788 0.133163,0.4069088 0.187727,4.9822582 0.226408,18.9860462 l 0.05096,18.449947 -0.52116,0.875096 c -1.033194,1.734883 -1.576491,2.241579 -3.371392,3.14427 L 45.417697,50.07358 25.301454,50.0587 C 14.237525,50.050447 4.9768176,49.99359 4.7221068,49.932214 Z M 11.73208,42.498773 C 10.057663,42.336547 8.5488063,41.203653 7.6859268,39.460771 7.2250699,38.529915 7.1997862,38.398506 7.2022508,36.947146 c 0.00217,-1.40725 0.038654,-1.608286 0.4475384,-2.479433 0.9161807,-1.952097 2.2364069,-2.913782 4.4835878,-3.265977 l 1.083409,-0.169802 0.33786,-1.290096 c 0.185826,-0.709553 0.538903,-1.672433 0.784626,-2.139745 0.572829,-1.089397 1.966358,-2.444288 3.153449,-3.066006 0.88992,-0.466081 1.010892,-0.489447 2.800622,-0.541016 2.088207,-0.06016 2.550177,0.04245 3.903711,0.866949 1.597212,0.972953 2.671659,2.365134 3.270851,4.238083 l 0.340721,1.065039 1.466905,0.09975 c 1.201875,0.08174 1.634932,0.179444 2.396943,0.540897 1.110194,0.526613 2.320056,1.695437 2.847914,2.751319 1.505207,3.010897 0.178809,6.900623 -2.915049,8.548583 l -0.994231,0.529577 -8.971883,-0.02286 c -4.934532,-0.01267 -9.392747,-0.06372 -9.907145,-0.11355 z m 27.373516,-4.237964 c -0.657454,-0.406325 -1.754753,-1.599558 -1.859322,-2.021894 -0.151495,-0.611839 0.116414,-1.109104 0.624683,-1.159442 0.388292,-0.03848 0.587331,0.09283 1.45365,0.958858 1.384975,1.384504 1.451623,1.535919 0.915279,2.079576 -0.506311,0.513216 -0.53022,0.516231 -1.13429,0.142889 z M 35.96125,31.669445 C 35.321472,30.804998 33.730246,29.520323 32.657877,29.00247 32.256841,28.808811 31.494938,28.53991 30.964763,28.404916 29.888824,28.130957 29.68979,27.944962 28.854607,26.432926 28.326836,25.477432 26.875416,23.869667 26.120515,23.404328 l -0.44251,-0.272775 0.500123,-0.445106 c 0.275072,-0.244814 0.993791,-0.692422 1.597156,-0.994691 0.933353,-0.467577 1.272824,-0.558764 2.275246,-0.611155 1.48267,-0.07749 2.660262,0.139253 3.781421,0.696048 3.585762,1.780724 4.989737,6.241292 3.133789,9.956387 -0.190351,0.381028 -0.368282,0.692784 -0.395397,0.692784 -0.02713,0 -0.301207,-0.34037 -0.609093,-0.756375 z m 4.161901,-2.307484 c -0.756171,-0.308824 -0.734874,-1.309878 0.03416,-1.606253 0.203974,-0.0786 1.037767,-0.142916 1.85289,-0.142916 1.281465,0 1.53335,0.04091 1.861158,0.302283 0.217805,0.17366 0.379123,0.448418 0.379123,0.645734 0,0.197324 -0.161316,0.472067 -0.379123,0.645737 -0.331514,0.264318 -0.57091,0.301127 -1.906498,0.293042 -0.840061,-0.0049 -1.668832,-0.06702 -1.841719,-0.137627 z M 22.777592,21.593976 c -0.81291,-0.593485 -2.268415,-2.127501 -2.268415,-2.390768 0,-0.338721 0.676755,-0.924782 1.067897,-0.924782 0.256336,0 0.674976,0.313614 1.438671,1.077738 1.117062,1.117695 1.376629,1.62579 1.121042,2.194386 -0.239435,0.532677 -0.670214,0.546434 -1.359195,0.04344 z m 14.214773,0.0066 c -0.123202,-0.178288 -0.22398,-0.449252 -0.22398,-0.602152 0,-0.154073 0.537014,-0.822335 1.204542,-1.498964 1.300371,-1.318108 1.701572,-1.483903 2.248741,-0.929269 0.45661,0.462833 0.355368,0.913195 -0.395628,1.759872 -1.34343,1.514552 -2.352396,1.966934 -2.833665,1.270462 z M 30.437364,19.33676 c -0.651948,-0.227873 -0.719437,-0.445553 -0.719437,-2.320644 0,-1.606046 0.03105,-1.832015 0.287776,-2.092208 0.372198,-0.377277 0.891176,-0.371706 1.234871,0.01323 0.224117,0.251039 0.280014,0.579849 0.316098,1.859578 0.04628,1.640302 -0.06691,2.087719 -0.615707,2.433916 -0.158283,0.09986 -0.384895,0.147599 -0.503601,0.106112 z m 6.124887,-9.218085 C 35.791592,9.603762 35.771784,9.4827241 35.766272,5.2541533 c -0.0056,-4.29781937 0.03905,-4.55871292 0.853511,-4.98562939 0.948765,-0.49731945 2.008211,-0.007437 2.301886,1.06431459 0.08135,0.2969009 0.147646,2.0904073 0.148098,4.0061665 0.0011,3.8740049 -0.0716,4.2624789 -0.889831,4.768145 -0.5974,0.369197 -1.077326,0.372626 -1.617681,0.01157 z m -24.59185,-0.02727 C 11.377806,9.7422762 11.300419,9.1577305 11.300419,5.0303993 c 0,-3.6795612 0.01767,-3.9455648 0.282897,-4.28750019 0.681395,-0.87806917 1.843462,-0.88457588 2.597082,-0.0146001 l 0.455883,0.52630209 -0.05835,4.0269703 C 14.545851,7.4964049 14.473103,9.4104644 14.416299,9.5350339 14.14051,10.139843 12.634161,10.482482 11.9704,10.091382 Z M 16.624234,5.2977444 V 3.9851006 h 8.561263 8.561258 v 1.3126438 1.3126439 h -8.561258 -8.561263 z"
       id="path691" /></g></svg>
